<svg xmlns="http://www.w3.org/2000/svg" xmlns:xlink="http://www.w3.org/1999/xlink" width="90" height="65"><defs><linearGradient xlink:href="#a" id="e" x1="229.101" y1="84.663" x2="232.851" y2="84.663" gradientUnits="userSpaceOnUse"/><linearGradient id="a"><stop offset="0" stop-color="#3d1c00"/><stop offset="1" stop-opacity="0"/></linearGradient><linearGradient xlink:href="#b" id="f" x1="234.151" y1="84.419" x2="245.651" y2="84.419" gradientUnits="userSpaceOnUse"/><linearGradient id="b"><stop offset="0" stop-color="#f2d694"/><stop offset="1" stop-color="#f2d694" stop-opacity="0"/></linearGradient><linearGradient xlink:href="#c" id="g" gradientUnits="userSpaceOnUse" gradientTransform="matrix(1.5 0 0 1.5 -80.405 -39.851)" x1="203.463" y1="86.53" x2="200.896" y2="86.53"/><linearGradient id="c"><stop offset="0" stop-color="#3d1c00"/><stop offset="1" stop-color="#fff"/></linearGradient><radialGradient xlink:href="#d" cx="185.124" cy="97.044" fx="185.124" fy="97.044" r="2.556" gradientTransform="matrix(1 0 0 .82 0 17.468)" gradientUnits="userSpaceOnUse"/><linearGradient id="d"><stop offset="0" stop-color="#f2d694"/><stop offset="1" stop-color="#f2d694" stop-opacity="0"/></linearGradient><radialGradient r="2.556" fy="97.044" fx="185.124" cy="97.044" cx="185.124" gradientTransform="matrix(1 0 0 .82 0 17.468)" gradientUnits="userSpaceOnUse" id="h" xlink:href="#d"/></defs><g transform="matrix(3 0 0 3 -654.014 -234.989)"><rect ry="3.007" rx="3.03" y="80.825" x="219.459" height="18.259" width="27.187" fill="#f2d694"/><path transform="matrix(1.157 0 0 1.095 39.532 -11.394)" d="M172.889 95.362c0 2.271-1.741 4.111-3.889 4.111-2.148 0-3.889-1.841-3.889-4.111 0-2.271 1.741-4.111 3.889-4.111 2.148 0 3.889 1.841 3.889 4.111z" stroke="#3d1c00" stroke-width="1.399" stroke-miterlimit="4.5" fill="none"/><rect ry=".667" rx=".639" y="82.788" x="229.101" height="3.75" width="3.75" fill="#3d1c00" stroke="url(#e)" stroke-width=".5"/><rect ry=".613" rx=".495" y="82.694" x="234.651" height="3.45" width="10.5" fill="#3d1c00" stroke="url(#f)" stroke-width=".4"/><rect ry=".225" rx=".501" y="79.514" x="221.234" height="1.263" width="2.938" fill="#3d1c00" stroke="#f2d694" stroke-width=".3"/><rect transform="rotate(-90)" ry=".03" rx="3.1" y="224.8" x="-99.033" height=".17" width="18.192" fill="#3d1c00"/><path d="M222.482 80.777c-1.258 0-2.25.785-2.25 1.734v14.859c0 .938.968 1.715 2.203 1.734h2.3440000000000003v-18.281h-2.016l-.281-.047z" opacity=".203" fill="url(#g)"/><path d="M238.499 93.024c0 1.864-1.511 3.375-3.375 3.375s-3.375-1.511-3.375-3.375 1.511-3.375 3.375-3.375 3.375 1.511 3.375 3.375z" fill="#3d1c00"/><path d="M238.096 93.02c0 1.657-1.343 3-3 3s-3-1.343-3-3 1.343-3 3-3 3 1.343 3 3z" fill="url(#h)"/></g></svg>