<svg xmlns="http://www.w3.org/2000/svg" xmlns:xlink="http://www.w3.org/1999/xlink" height="305.433" width="355.834" version="1"><defs><linearGradient id="a"><stop offset="0" stop-color="#fefefe"/><stop offset="1" stop-color="#fefefe" stop-opacity="0"/></linearGradient><linearGradient gradientUnits="userSpaceOnUse" id="f" x1="478" x2="472.115" xlink:href="#a" y1="1272.362" y2="1121.901"/><linearGradient id="b"><stop offset="0" stop-color="#c71907"/><stop offset="1" stop-color="#e8a06c"/></linearGradient><linearGradient gradientTransform="matrix(.993 .122 -.122 .993 360.679 326.647)" gradientUnits="userSpaceOnUse" id="e" x1="232.566" x2="364" xlink:href="#b" y1="945.028" y2="945.028"/><linearGradient id="c"><stop offset="0" stop-color="#c71907"/><stop offset="1" stop-color="#e38d5e"/></linearGradient><linearGradient gradientTransform="translate(7.976 10)" gradientUnits="userSpaceOnUse" id="d" x1="478.024" x2="368.953" xlink:href="#c" y1="1282.192" y2="1103.192"/></defs><g transform="translate(-159.226 -166.788)"><path d="M471.654 1150.357c-67.129-88.082-132.636-52.32-148.324 7.531-36.861 140.636 148.212 215 148.212 215s200.571-75.106 160.66-216.156c-15.492-54.75-94.034-94.753-160.548-6.375z" fill="url(#d)" fill-rule="evenodd" stroke="#6a0000" stroke-width="9.347" transform="translate(-141.357 -916.52)"/><path d="M326.733 441.547l7.228 7.72s138.161-73.303 137.68-110.343c-.481-37.039-.425-7.071-.425-7.071s-1.691 29.465-144.483 109.694z" opacity=".576" fill="url(#e)" fill-rule="evenodd"/><path d="M471.753 1146.499c-71.767-92.953-141.8-55.213-158.571 7.948-39.408 148.412 158.451 226.888 158.451 226.888s214.428-79.259 171.76-228.108c-16.562-57.777-100.531-99.992-171.64-6.727z" stroke="#400" stroke-width="14.814" fill="none" transform="translate(-141.357 -916.52)"/><path d="M184.643 288.842c-4.236-28.72 5.637-58.986 24.633-80.671 13.655-12.691 33.951-21.711 52.56-15.845 11.854 4.204 22.784 10.777 33.419 17.348 14.895 11.887 25.755 28.03 35.498 44.178 2.126 5.847-1.725-7.011 37.091-46.176 20.09-15.201 48.718-23.583 72.349-11.594 15.342 7.825 27.397 20.728 37.285 34.592 3.224 14.685-15.657 18.027-24.891 24.323-57.893 29.486-124.521 34.48-188.428 31.913-26.479-1.07-53.329-3.516-79.516 1.932z" opacity=".929" fill="url(#f)" fill-rule="evenodd"/></g></svg>