<svg xmlns="http://www.w3.org/2000/svg" xmlns:xlink="http://www.w3.org/1999/xlink" width="128" height="128" version="1"><defs><linearGradient id="i"><stop offset="0" stop-color="#ffeed6"/><stop offset="1" stop-color="#ffcd8b"/></linearGradient><linearGradient id="h"><stop offset="0" stop-color="#fff"/><stop offset="1" stop-color="#fff" stop-opacity="0"/></linearGradient><linearGradient id="g"><stop offset="0" stop-color="#ffeed6"/><stop offset="1" stop-color="#ffcd8b"/></linearGradient><linearGradient id="c"><stop offset="0"/><stop offset="1" stop-color="#747474"/></linearGradient><linearGradient id="d"><stop offset="0" stop-color="#d49c56"/><stop offset="1" stop-color="#d49c56" stop-opacity=".258"/></linearGradient><linearGradient id="e"><stop offset="0" stop-color="#d49c56"/><stop offset="1" stop-color="#d49c56" stop-opacity="0"/></linearGradient><linearGradient id="f"><stop offset="0" stop-color="#9f5f09"/><stop offset="1" stop-color="#9f5f09" stop-opacity="0"/></linearGradient><linearGradient id="b"><stop offset="0" stop-color="#da8410"/><stop offset="1" stop-color="#c97402" stop-opacity="0"/></linearGradient><linearGradient id="a"><stop offset="0" stop-color="#664314"/><stop offset="1" stop-color="#a06b08"/></linearGradient><linearGradient xlink:href="#a" gradientUnits="userSpaceOnUse" gradientTransform="translate(-199.986 52.32)" x1="-13.709" y1="5.377" x2="27.385" y2="-25.337"/><linearGradient xlink:href="#b" gradientUnits="userSpaceOnUse" gradientTransform="translate(-199.986 52.32)" x1="8.304" y1="-31.888" x2="1.617" y2="-10.638"/><linearGradient xlink:href="#c" gradientUnits="userSpaceOnUse" x1="158.429" y1="24.964" x2="158.4" y2="-11.643" gradientTransform="translate(-331.424 73.067)"/><linearGradient xlink:href="#d" gradientUnits="userSpaceOnUse" x1="161.205" y1="-10.795" x2="159.786" y2="13.313" gradientTransform="translate(-331.424 73.067)"/><linearGradient xlink:href="#e" gradientUnits="userSpaceOnUse" x1="160.121" y1="-8.082" x2="164.943" y2="-67.703" gradientTransform="translate(-331.424 73.067)"/><linearGradient xlink:href="#f" gradientUnits="userSpaceOnUse" gradientTransform="translate(-199.986 52.32)" x1="40.538" y1="7.1" x2="56.009" y2="-1.612"/><radialGradient xlink:href="#g" cx="-165.242" cy="33.695" fx="-165.242" fy="33.695" r="21.607" gradientTransform="matrix(.719 -.017 .035 1.469 -47.567 -19.6)" gradientUnits="userSpaceOnUse"/><linearGradient xlink:href="#h" x1="-247.277" y1="16.796" x2="-172.043" y2="48.76" gradientUnits="userSpaceOnUse"/><radialGradient xlink:href="#i" cx="-164.861" cy="72.644" fx="-164.861" fy="72.644" r="15.009" gradientTransform="matrix(.104 .081 -.214 .273 -132.201 63.745)" gradientUnits="userSpaceOnUse"/><linearGradient xlink:href="#a" id="j" gradientUnits="userSpaceOnUse" gradientTransform="translate(-198.232 52.32)" x1="-13.709" y1="5.377" x2="27.385" y2="-25.337"/><linearGradient xlink:href="#c" id="k" gradientUnits="userSpaceOnUse" gradientTransform="translate(-331.424 73.067)" x1="158.429" y1="24.964" x2="158.4" y2="-11.643"/><radialGradient xlink:href="#i" id="l" gradientUnits="userSpaceOnUse" gradientTransform="matrix(.104 .081 -.214 .273 -132.201 63.745)" cx="-164.861" cy="72.644" fx="-164.861" fy="72.644" r="15.009"/><linearGradient xlink:href="#d" id="m" gradientUnits="userSpaceOnUse" gradientTransform="translate(-331.424 73.067)" x1="161.205" y1="-10.795" x2="159.786" y2="13.313"/><radialGradient xlink:href="#g" id="n" gradientUnits="userSpaceOnUse" gradientTransform="matrix(.719 -.017 .035 1.469 -44.059 -19.6)" cx="-165.242" cy="33.695" fx="-165.242" fy="33.695" r="21.607"/><linearGradient xlink:href="#e" id="o" gradientUnits="userSpaceOnUse" gradientTransform="translate(-327.916 73.067)" x1="160.121" y1="-8.082" x2="164.943" y2="-67.703"/><linearGradient xlink:href="#h" id="p" gradientUnits="userSpaceOnUse" x1="-247.277" y1="16.796" x2="-172.043" y2="48.76" gradientTransform="translate(1.754)"/></defs><g fill-rule="evenodd"><path d="M89.504 38.9c1.827-12.544-5.104-29.561-24.364-29.93-24.992-.48-29.639 17.526-28.372 30.968 1.543 16.371 49.525 21.004 52.736-1.038z" fill="url(#j)"/><path d="M-222.674 95.621c2.449-6.763 3.534-19.316 11.964-23.508l39.107-8.367 40.844 7.764c7.187 2.58 10.584 16.564 14.02 24.487-2.238 1.607-4.167 3.986-6.829 4.535h-92.679c-3.01-1.117-4.534-3.125-6.429-4.911z" fill="url(#k)" stroke="#000" transform="matrix(1.14 0 0 1.14 257.513 9.584)"/><path d="M-183.12 55.085c.208 5.059-.991 7.975-3.361 12.264 9.229 16.963 33.15 8.219 32.526-.478l-2.647-14.464-26.518 2.679z" fill="url(#l)" stroke="url(#m)" transform="matrix(1.14 0 0 1.14 257.513 9.584)"/><path d="M-149.38 27.913c-.51 7.997-.734 17.748-2.525 25.745 0 0-8.144 7.403-12.69 9.421-4.546 2.018-5.818 1.744-10.102-.063-4.283-1.807-14.205-8.853-14.205-8.853-4.264-17.29-5.723-35.412 13.258-45.064l5.62 6.675c2.079 2.47 11.209 6.309 14.658 3.016 2.722-2.599 4.384 6.931 5.986 9.123z" fill="url(#n)" stroke="url(#o)" transform="matrix(1.14 0 0 1.14 257.513 9.584)"/><path d="M41.039 42.968c-.806 9.138.529 17.868 2.553 27.191 5.577 4.506 9.805 10.451 21.447 8.072 3.986-.908 2.508-2.814 4.798-3.965-13.762 4.089-16.007 1.197-23.101-7.128l-4.683-27.216-1.014 3.045z" fill="url(#p)"/></g></svg>